<svg xmlns="http://www.w3.org/2000/svg" data-name="Слой 1" viewBox="0 0 100 125" x="0px" y="0px" fill="#4a148c"><title>венок 2</title><g><path d="M74.32733,52.04874a4.84929,4.84929,0,0,1-.36408-1.00654c-0.195-1.49453-.25292-3.01358-0.54813-4.48607a7.56578,7.56578,0,0,0-1.09969-2.6386,32.476,32.476,0,0,0-2.8-3.53352,4.1752,4.1752,0,0,0-1.85421-1.021c0.6776,3.1199-1.73842,4.68045-2.95335,7.11827-1.03937-1.87717-.5897-3.67136-0.5974-5.396l-0.48631-.11212c-0.25465.84286-.55645,1.675-0.75042,2.53163-0.18714.82651,0.34551,1.97931-1.08388,2.17637-1.46.20128-1.96739-.73314-2.3707-2.40541L58.88312,45.0319l-0.019-.14532a3.2325,3.2325,0,0,1-.52925,1.22861c-0.61918.5339-1.45475,1.13072-2.07683,0.0673-0.62576-1.06976-.26619-1.94747,1.09666-2.34659l-0.36125-.40807c-0.85716.51862-1.71586,1.03477-2.57084,1.557a3.79223,3.79223,0,0,1-1.31411.7707,1.64776,1.64776,0,0,1-1.32662-.58785A1.5309,1.5309,0,0,1,51.83568,43.72a2.75648,2.75648,0,0,1,1.62084-.705,3.53639,3.53639,0,0,1,1.29874.24164c0-.853-0.27478-1.9929.05865-2.21354a5.91345,5.91345,0,0,1,2.37036-.44012l1.22684-1.28342C57.43,39.01527,56.46819,38.717,55.45172,38.4018a4.508,4.508,0,0,1,5.01-1.98933c1.61071,0.517,3.18968,1.13276,4.79968,1.65213a14.0767,14.0767,0,0,0,1.86478.34514l0.2618-.61475c-1.73194-1.06961-3.40128-2.262-5.20883-3.1833-3.79436-1.93391-7.93848-2.67921-12.118-3.23149-3.74041-.49429-7.21021.7263-10.63255,1.8894a27.51018,27.51018,0,0,0-13.6332,10.35952,17.85374,17.85374,0,0,0-3.02215,6.06214A10.58581,10.58581,0,0,1,20.989,52.75415a1.3176,1.3176,0,0,1-1.00536-.18819,9.29356,9.29356,0,0,1-.27812-2.33965,12.98936,12.98936,0,0,1,.37572-2.06993,4.28806,4.28806,0,0,0-2.42479,3.8529,1.23942,1.23942,0,0,0,.42717.83592,1.56647,1.56647,0,0,1,.14185,2.43149c-0.7194.73614-1.60994,1.52956-2.66529,0.32517a1.88124,1.88124,0,0,0-.66179-0.28521c-0.41991,1.64834,1.04053.8536,1.60748,1.395-1.04865.67392,0.85058,4.31466-3.05871,2.28116a6.41184,6.41184,0,0,0,.04019,2.13486,1.84136,1.84136,0,0,1-.85722,2.37274,1.97574,1.97574,0,0,1-1.88963-.1816A5.272,5.272,0,0,1,10.45,61.20706c-0.60337-.80294-1.40057-1.39973-1.48711-2.08614-0.13473-1.06865.685-1.64265,1.78729-1.90242a4.62955,4.62955,0,0,0,1.47527-.97252,5.06555,5.06555,0,0,1-2.12284-.60956,2.25913,2.25913,0,0,1-.39823-1.9602c0.33473-1.01262,1.199-2.15891,2.3089-1.78143,1.91561,0.6516,2.38624-.90086,3.36725-1.82382l-2.08476.28893c-0.24188-1.64515.8362-2.63921,1.69229-3.44118,1.84336-1.72683,4.02108-3.42154,6.59406-3.35313,2.85076,0.07574,4.14318-1.519,5.676-3.391a36.55484,36.55484,0,0,1,4.43314-3.97718c0.2391-.20933.49053-0.40456,0.85132-0.70079a17.09152,17.09152,0,0,0-2.463.22382,2.297,2.297,0,0,0-1.23336.80533c-1.71752,2.3555-4.3117,3.2516-6.90117,4.017-0.68234.20167-1.74161-.41229-2.46194-0.89778a46.12863,46.12863,0,0,1-3.83873-3.01565c-0.97517-.82-1.8862-1.71635-2.89477-2.64214,0.92313-.622,1.874-1.26263,2.95859-1.9934a1.97464,1.97464,0,0,0-2.40788-.0191,3.24842,3.24842,0,0,1-3.74508-.83242c-0.76445-1.072-.20247-1.94113,1.81895-2.5131-1.50711.06454-3.03208,0.43429-3.58876-1.1197-0.26806-.7483-0.04021-2.41689.2648-2.49531a14.3157,14.3157,0,0,1,3.61431-.08726l0.04661,0.4681a3.31345,3.31345,0,0,0,.453-0.54491,1.54134,1.54134,0,0,1,2.20314-.77535,3.107,3.107,0,0,1,1.136,1.80636,18.10506,18.10506,0,0,1,.3249,2.95243,1.91865,1.91865,0,0,1,3.40143.79921c0.948,4.07042,4.45567,4.28551,7.539,5.27058-3.51846-2.30058-5.65539-5.62323-7.13357-9.57587,0.37155,0.20221.74763,0.39662,1.11383,0.60813a15.62422,15.62422,0,0,0,3.51632,1.97874c3.41692,0.88333,5.25336,3.03232,5.87107,6.57375,2.243-.36918,4.42566-0.43279,6.58434-1.37762a71.77762,71.77762,0,0,1,7.8526-2.46687c0.48644-.1489.96313-0.32957,1.75808-0.60384-4.015-.71153-5.7738-4.108-8.87185-5.59529l0.17647-.34285q3.63172,0.46393,7.26346.9279l0.21087-.56974a10.53553,10.53553,0,0,0-2.35429-1.30309,25.04,25.04,0,0,0-3.9844-.54652c-1.71263-.15967-2.44623-1.134-2.08919-2.85154a2.56792,2.56792,0,0,0,.05357-0.59071C35.127,18.643,33.68808,18.17347,32.25841,17.707c0.59157-1.85828,1.1773-2.91447,3.132-2.53875,1.88742,0.36281,1.45528,2.20127,2.47965,3.35918,0.4234-1.53625,1.1717-1.04092,1.95737-.39945C40.369,16.011,38.18295,15.161,38.06277,13.336c0.53868-.879,1.31149-1.6419,2.587-0.84011,1.19962,0.7541,1.03857,1.8264.52918,2.94238a5.94265,5.94265,0,0,0,.88284,5.03556c0.75211,0.72741,1.57746,1.37912,2.54853,2.21847,0.04832-1.18632.09375-1.92554-1.17759-1.97451-1.14347-.044-1.34412-1.07248-1.29173-1.93548a4.47446,4.47446,0,0,1,.82242-1.56745c0.67373,0.37734,1.72578.6048,1.94629,1.16163a35.30849,35.30849,0,0,1,1.02515,4.335,22.92819,22.92819,0,0,0,.84957,2.32133l0.51707-.14926c-0.12641-2.79866-.25282-5.59733-0.38643-8.55545a8.75327,8.75327,0,0,1,1.05022.90919c1.122,1.33222,2.14071,2.75842,3.33221,4.02308a5.36482,5.36482,0,0,1,1.59073,4.21721c-0.07518,1.1431-.19056,2.28352-0.29165,3.46819,0.98943,0.42925,2.105.91316,3.22049,1.39708l-0.11153.31519-1.27548.117-0.05266.22461c1.2151,0.26918,2.45183.466,3.64129,0.821a27.975,27.975,0,0,1,9.92906,5.22686c0.69572,0.57422,1.48538,1.03405,2.18745,1.6014a2.58537,2.58537,0,0,1,.43572.80995,16.239,16.239,0,0,0,1.74544,2.77627c-0.4079-1.62988-.52129-3.31381-1.99755-4.53287a13.105,13.105,0,0,1-4.3836-5.8873c-0.92545-2.73638-2.06956-5.39877-3.11274-8.09558a2.02369,2.02369,0,0,0-.13491-0.5369c-1.88933-.39744-1.35551-2.48651-2.46571-3.45892,1.98292,0.31344,4.27507-.52309,5.55333,1.92046l0.35921-.48263A20.89825,20.89825,0,0,0,63.868,19.06409c-0.94637-.65757-2.07767-1.04568-3.04182-1.68229a6.46516,6.46516,0,0,1-1.19792-1.42506,12.2121,12.2121,0,0,1,1.93116-1.35583A2.43773,2.43773,0,0,1,62.8,14.75279a24.25272,24.25272,0,0,1-.531-3.57781c-0.0082-1.34649.87227-1.71631,2.064-1.02912a2.34,2.34,0,0,1,.83065,3.4469,2.01442,2.01442,0,0,0-.20392.51966,1.89794,1.89794,0,0,0,.08838.50227c1.53839-.58749,3.14387-1.36949,3.66988,1.28012,0.39407,1.98507-1.62283.91828-1.92885,1.92847l0.58007,1.94328a14.56271,14.56271,0,0,1,2.75311.30721c1.63972,0.50037,1.80313,1.66319.48357,2.74768-1.63086,1.34027-1.72985,2.07891-.53762,3.91268,0.288,0.443.55389,0.90032,0.87435,1.42362,1.74341-2.39242,3.43384-4.71214,5.12427-7.0319l0.38943,0.2a1.4678,1.4678,0,0,1,.10845.7566c-1.456,2.06335-1.15356,4.54489-1.68616,6.8249a31.01493,31.01493,0,0,1-1.36028,4.73454,11.71719,11.71719,0,0,0-.42676,7.94714c0.89884,3.17321,2.197,6.29988,1.69282,9.7252-0.03249.22071-.08771,0.438-0.13236,0.6569ZM18.112,37.06107a20.67,20.67,0,0,0,1.65767,1.48287c0.61329,0.4315,1.434,1.21766,1.91917,1.06568a50.387,50.387,0,0,0,5.19691-2.2062L26.72942,36.693C23.96012,36.1678,21.19819,36.62567,18.112,37.06107Zm3.75882-8.92155c1.37619,3.32884,4.54173,4.31187,7.235,6.37272C28.43351,30.08323,25.32866,29.01093,21.87084,28.13952Zm19.24933-2.37668c2.51421,2.93687,5.45524,4.09181,9.08291,3.15C47.3269,27.551,44.70458,25.45237,41.12017,25.76284Zm30.3037,9.2903a9.04412,9.04412,0,0,0,1.04642-1.78282,39.4264,39.4264,0,0,1,1.01148-4.23556c0.719-1.784.85181-1.73048,0.49113-3.29027C71.62816,28.1172,70.249,32.58881,71.42387,35.05315ZM47.93534,19.07057c0.48521,3.52826,2.25442,6.20106,3.45178,9.15167C52.99839,24.16155,50.68089,21.70545,47.93534,19.07057Zm20.061,10.59755c0-1.58373.25754-2.87108-.07869-3.97808A6.1159,6.1159,0,0,0,65.946,23.2378c-0.21066-.18489-1.008.29534-1.53406,0.47583-0.11308.03882-.2178,0.102-0.4989,0.23652C65.268,25.8476,66.56062,27.65765,67.9963,29.66811ZM14.94321,48.77947c3.1205-.11223,4.975-2.17776,7.17107-4.04337C19.69657,44.33035,16.04846,46.43238,14.94321,48.77947Zm54.886-12.86461c-1.20706-3.88713-2.47125-6.03931-4.85732-8.1145C66.48715,30.77372,67.09527,33.86014,69.82918,35.91486Zm-53.2352.18378c2.51839-.28493,4.64654-0.52574,7.06571-0.79947C20.58995,33.67453,18.1592,33.87531,16.594,36.09865Zm46.42585,2.56068c-2.6043-1.77824-4.27451-1.92586-5.673-.42C59.42262,38.393,61.22122,38.52616,63.01983,38.65932Zm3.14036,1.463c-1.40245,1.26739-1.58226,2.08857-.80183,3.33807C66.80988,42.246,67.00483,41.50947,66.16018,40.1223ZM63.83883,13.73351c0.28448,2.72972.51075,3.21553,1.26157,3.3ZM22.33933,46.92073l-0.43453-.1728L20.55192,50.3038l0.384,0.15248Z"/><path d="M27.68407,73.75608c-0.2315,1.2885-.8967,2.272-2.61441,1.88618,0.60171,1.272,1.60552,1.64841,2.34141.88257,0.78353-.81539,1.75151-1.35425,2.64664-0.55314a2.45253,2.45253,0,0,1,.37748,2.18771,1.726,1.726,0,0,1-2.5951.97355c-0.0755-.03635-0.18373-0.00476-0.419.25892,0.44143,0.19226.89809,0.35623,1.3207,0.58355,0.62793,0.3377,1.58968.60652,1.75066,1.11376a2.1981,2.1981,0,0,1-.66072,1.98961,2.67826,2.67826,0,0,1-2.24838.07771,1.78821,1.78821,0,0,1-.71541-2.87966c-2.5774-2.95973-2.6001-2.97283-3.71927-2.064a6.22218,6.22218,0,0,0,.53079.41751c1.44494,0.905,1.73465,1.664,1.05286,2.78793a3.17287,3.17287,0,0,1-3.69855,1.0889c-1.0219-.6214-1.07847-2.1988-0.11946-3.33063,1.043-1.2309.997-3.81751-.37946-5.40535V76.747a6.73593,6.73593,0,0,1-2.37938.7653,2.787,2.787,0,0,1-2.04218-1.23A2.126,2.126,0,0,1,16.882,73.328a2.946,2.946,0,0,0,1.40816-2.81108c0.06579-1.40806.313-2.80761,0.53791-4.67987a45.70463,45.70463,0,0,1-3.93316,4.23585,22.71724,22.71724,0,0,1-4.17045,2.48884,2.47567,2.47567,0,0,1-1.2417-.18475c2.07875-3.50379,3.91453-6.92425,6.07647-10.1244,1.38284-2.047,3.79655-2.70894,6.15048-3.14162a3.91,3.91,0,0,1,1.51066.58066c0.10791-1.26381.22409-2.51073,0.31924-3.75927a23.79977,23.79977,0,0,1,3.48392-11.39429,2.315,2.315,0,0,1,1.33137-.89506l-3.22312,7.18177,0.14892,0.43136c4.972-1.53886,7.12414,2.4419,10.80137,4.71293a25.35973,25.35973,0,0,1,2.671,1.67875,5.4629,5.4629,0,0,1-.56676,1.65252,1.60353,1.60353,0,0,1,.4989.34249c0.42724,0.51107.80391,1.06443,1.20084,1.60083-0.62637.35634-1.28523,1.04017-1.87051,0.98214a2.38515,2.38515,0,0,1-1.79383-1.259,1.29794,1.29794,0,0,0-1.4419-1.25948,6.74667,6.74667,0,0,1,.86464,1.82411,1.52263,1.52263,0,0,1-.637,1.31043,2.30987,2.30987,0,0,1-1.84684-.31466c-0.2939-.27176-0.04482-1.14367-0.01545-1.74708,0.01649-.33877.07818-0.67532,0.09755-0.83345a7.38532,7.38532,0,0,1-2.21623.34643c-0.90383-.1606-0.83911-0.9888-1.02776-1.78211-0.1745-.73385-1.22649-1.25909-2.06116-1.74951,2.47888,1.74547,1.8698,4.28833,1.81092,6.65535a1.3613,1.3613,0,0,1-.84659.284c-1.34048-1.77084-4.15921-2.31067-4.22634-5.164a7.0219,7.0219,0,0,0,.68745,4.94906c1.88337,3.37535,3.75085,6.75953,5.63484,10.13452a13.9551,13.9551,0,0,0,.855,1.15079C30.29376,74.39155,29.05789,74.09063,27.68407,73.75608Zm0.04668-1.50985,0.489-.24883c-1.68684-3.50694-3.37368-7.01391-5.08114-10.56374C21.186,66.9143,21.31619,70.4584,27.73075,72.24623ZM11.87889,70.88508L12.151,71.14922a9.38779,9.38779,0,0,0,1.7502-1.442c1.53362-2.04868,3.029-4.1317,4.42551-6.27555,1.05676-1.62233.97975-1.67249,2.44353-.7443a12.37274,12.37274,0,0,0,1.18623-1.32359,1.42806,1.42806,0,0,0,.21513-1.02962,0.96091,0.96091,0,0,0-.86039-0.2616,17.38607,17.38607,0,0,0-4.21915,1.868C14.15034,64.16987,13.3164,67.7255,11.87889,70.88508Zm16.80284-9.22c0.33593-1.97874-.679-3.6607-2.93663-4.86638C24.94782,58.76323,26.19156,60.82429,28.68173,61.66507Zm-2.83274-8.915c1.52414,1.03226,3.08064.7311,4.83157,0.63142C28.98844,51.55677,27.67853,51.40544,25.849,52.75007Zm6.4078,1.78043c-1.66855.11223-3.11469,0.20951-4.67449,0.31441C29.11949,56.81766,31.299,56.70657,32.25678,54.53049ZM21.13735,68.74742L20.747,68.755a4.59575,4.59575,0,0,0,.53823,2.01208,2.667,2.667,0,0,0,2.44291,1.17433C22.74909,70.73438,21.94322,69.7409,21.13735,68.74742Zm-0.2241,3.42189c0.79961,1.01108,1.59921,2.02217,2.61035,3.30079A3.10281,3.10281,0,0,0,20.91324,72.16931Z"/><path d="M85.27077,45.763a1.65142,1.65142,0,0,1,.222-0.52291c0.68672-.72022,1.46649-1.92554,2.43676-1.16059,0.4542,0.35809.1305,1.94253-.12861,2.89261-0.22114.81088-.8541,1.50942-1.1239,2.38308,1.21463-.30968,2.08024-0.83771,1.95873-2.2784-0.08956-1.06189.07719-2.051,1.37676-2.36713,1.0291-.25033,1.94487-0.36478,2.25718,1.003,0.25741,1.12736-.47621,2.55-1.57232,2.53538-2.52581-.0337-2.85028,2.19447-4.17463,3.38519l0.42313,0.466A15.95254,15.95254,0,0,0,89.204,49.789c0.77607-1.18592,1.64222-.39165,2.44686-0.30049a1.35161,1.35161,0,0,1,.67576.86576,4.52336,4.52336,0,0,1-1.61991,1.7679,26.57758,26.57758,0,0,1-4.13042.87277,1.80447,1.80447,0,0,0,.17247.50456c0.94787,0.70981,1.65338,1.86006.91581,2.70464a4.026,4.026,0,0,1-3.022.78283c-2.07608-.1928-4.97958,1.09527-5.96929,3.049,3.51531-.46785,6.97814-0.92876,10.85028-1.44412a3.7113,3.7113,0,0,1-.71064,1.03323c-3.74874,1.53192-7.26952,3.74363-11.45221,3.99729a19.56542,19.56542,0,0,1-2.74523-.2411,1.01286,1.01286,0,0,0-.64735.069,16.86073,16.86073,0,0,0-2.53291,2.30663c-2.33885,3.01679-4.84381,5.80877-8.43118,7.38244-0.30605.13427-.63508,0.21613-1.28727,0.43368,0.56343-1.41965,1.781-1.41007,2.58822-1.949,0.8858-.59146,1.69037-1.30456,2.32435-1.80279L66.193,67.10051c-2.5299-.198-3.71708-2.40094-5.33192-4.09761l0.27012-.47161q1.76174,0.50434,3.52348,1.00865l0.22036-.40886c-1.033-.63786-2.05293-1.29826-3.104-1.90478-0.59284-.34206-1.23692-0.59536-1.85793-0.88862L61.06,58.41162c-0.79955-.46513-3.046-0.03027-2.19473-2.234,0.17259-.44678,1.46826-0.45969,2.18413-0.65564-0.49667-.64623-1.60513-1.49006-0.99631-3.01626,2.94739,0.06529,1.6027,2.82936,2.7507,4.2371a6.15661,6.15661,0,0,1,.2684-1.1812c0.23247-.49962.5512-0.95906,0.83346-1.43554a2.22148,2.22148,0,0,1,.95131.62713,2.8574,2.8574,0,0,1-1.18324,2.56755L66.736,57.058c0.34782-.67346,1.00613-0.34353,1.62267.41036,1.104,1.34992.93,2.75552,0.45016,4.36a40.67036,40.67036,0,0,0-1.18954,6.56777c3.31794-2.58172,4.57856-6.01488,4.74078-10.04229,0.155-3.848-.24915-7.507-2.69363-10.73217l0.46013-.34882a6.64676,6.64676,0,0,1,1.38215,1.25884c1.54946,2.53807,1.75554,5.40936,1.88262,8.2838,0.03649,0.8254.0056,1.65378,0.0056,2.80006,1.41212-2.7342,2.60094-5.23956,3.99639-7.624a7.84725,7.84725,0,0,1,2.23381-1.90811,0.76632,0.76632,0,0,1,.7474.08876,1.17827,1.17827,0,0,1,.06883.886c-0.5379,1.60827-1.1646,3.18806-1.6598,4.80849a3.6541,3.6541,0,0,0,.183,1.42126,2.7557,2.7557,0,0,0,1.28029-.62623c0.81547-1.92307,1.51961-3.89493,2.20145-5.87095a1.33078,1.33078,0,0,0-.3346-0.88247c-0.52557-.77811-0.54548-3.14742.19271-3.58425a11.923,11.923,0,0,1,2.716-.85456ZM74.73094,61.37339c2.82918-2.51753,3.00181-6.02239,4.15619-9.37284C77.05259,53.36679,74.1745,59.80895,74.73094,61.37339ZM76.63716,62.206l0.069,0.48231c2.59854-.35126,5.20879-0.66047,7.495-2.13236l-0.14236-.51132Q80.348,61.12531,76.63716,62.206Zm6.01193-8.29339,0.35366,0.20389c0.9219-1.30435,1.8438-2.60873,2.95175-4.17635C83.21009,50.39525,83.17159,52.32021,82.64909,53.91259ZM65.71543,62.47538l0.318-2.949C64.64158,60.6541,64.62012,61.16857,65.71543,62.47538Zm17.731-14.4659,1.2098,1.47976,0.39909-2.26885-0.45619-.19523C84.227,47.34286,83.85494,47.66059,83.44638,48.00948Z"/><path d="M52.54462,66.9641a10.49355,10.49355,0,0,1,1.71459-1.9284,1.62472,1.62472,0,0,1,1.45913.54434,10.77157,10.77157,0,0,1,.7581,2.53524,4.19014,4.19014,0,0,1,1.02751.83023A4.79053,4.79053,0,0,1,55.987,71.05809c-0.35486.219-1.28428-.41759-1.91092-0.74895a5.02569,5.02569,0,0,0-.7-0.71317,3.43017,3.43017,0,0,0-1.20339.405l0.70564,0.39662,1.19788,1.76221c-0.6694.44918-1.31781,0.93445-2.01318,1.339a17.12886,17.12886,0,0,0-3.00381,1.96392q4.71278-.44987,9.42557-0.89971l0.075,0.44138c-0.94519.6862-1.89038,1.37236-2.91122,2.11343l1.276,1.16145c-1.58483.32167-2.91528,0.59167-4.47969,0.90919a8.31753,8.31753,0,0,0,7.22357,1.51593A2.51816,2.51816,0,0,0,60.548,79.9741a2.961,2.961,0,0,1,4.39863.07663c0.86336,0.78244.62363,1.50491-.14564,1.86a5.47226,5.47226,0,0,1-2.721.434c-1.58313-.15767-3.1409-0.56981-4.70929-0.87549l-0.182.52066a23.74113,23.74113,0,0,0,3.835,2.38519,5.00363,5.00363,0,0,0,2.76994-.30857c0.92883-.24571,1.78585-0.92121,2.7059-0.99076a2.56629,2.56629,0,0,1,2.11886.88368c0.44851,0.97931-.50184,1.61328-1.39288,1.7889A7.80043,7.80043,0,0,1,65.102,85.6022a10.95374,10.95374,0,0,0-2.0293-.066,3.91421,3.91421,0,0,0,3.5329,1.2656c0.6931-.137,1.56609.63575,2.3575,0.996a3.67826,3.67826,0,0,1-.80374,1.58655,2.03948,2.03948,0,0,1-2.65914-.11706c-1.04715-1.04622-2.09764-2.09-3.178-3.10137a2.84013,2.84013,0,0,0-.86358-0.37387l-0.34041.3836c0.48954,0.45283.98659,0.89782,1.46653,1.36055,0.49462,0.47687.97257,0.971,1.45782,1.45758a4.67272,4.67272,0,0,1-1.65936,1.17709,6.02614,6.02614,0,0,1-2.447-.46234,1.30645,1.30645,0,0,1-.0041-1.03366c1.17567-.84987.55266-1.74712,0.20852-2.681a8.60526,8.60526,0,0,1-.29922-1.29433c-0.85258.71782-1.5503,1.7761-2.33324,1.84343-0.94622.08139-2.40876-.15663-2.60163-1.54612a3.39674,3.39674,0,0,1,1.00182-1.95945c-0.93529-2.13483-3.297-2.36777-5.08771-3.48708l-0.46673.43433L56.60775,88.434l-0.20149.29716a7.72086,7.72086,0,0,1-1.38456-.663c-1.46329-1.09079-2.75236-2.51463-4.35939-3.29-2.40284-1.15938-4.10062-3.02921-5.93376-4.8067a6.4663,6.4663,0,0,1-1.75979-2.2623c-0.30941-.75507-1.70841-1.1133-2.66938-1.54265-3.28813-1.4691-5.03623-4.46035-7.00206-7.18338A8.76865,8.76865,0,0,1,32.39486,65.67a1.65535,1.65535,0,0,1,.51676-0.69536,1.67852,1.67852,0,0,1,.60747.63106c-0.18277,2.62357,1.4892,4.42307,3.03624,6.06239a5.07029,5.07029,0,0,0,5.12491,1.63363c-0.065-.6438-0.40823-1.4614-0.13923-1.91927a7.00392,7.00392,0,0,1,2.22153-2.47864c1.12492-.67314,2.56968-0.80286,3.24125-2.18624a1.4932,1.4932,0,0,1,.74237-0.24486,3.26,3.26,0,0,1,.08376,1.02854c-0.1793.729-.45851,1.43339-0.6972,2.14778l0.3491,0.0908L46.457,70.94457c0.865-.22525,1.98967.38574,2.3184-1.32842,0.20088-1.04758,1.31688-1.98428,2.16877-2.82128C51.58643,66.16385,52.404,65.99151,52.54462,66.9641ZM46.18186,77.26881c3.47008,1.72851,7.84116,1.02357,9.12485-1.46327A28.48361,28.48361,0,0,0,46.18186,77.26881Zm-5.68594-3.06234-0.29964.74655c1.446,0.756,2.8859,1.52448,4.3489,2.24606a1.077,1.077,0,0,0,.61317-0.28965c0.70554-.46062,1.40156-0.93585,2.24421-1.50162C45.07586,75.00311,42.78589,74.60477,40.49592,74.20647Zm9.86565,7.65613c-1.23729-2.58951-2.83923-3.40569-5.15919-2.71148C47.10068,80.1488,48.73113,81.00572,50.36157,81.86261Zm-7.293-9.42844,2.826-2.97876C43.35122,69.53433,42.35944,70.629,43.06858,72.43417ZM48.535,82.01061l-0.17014.30156q1.94369,1.112,3.88738,2.224l0.29912-.55744Q50.54317,82.9947,48.535,82.01061Zm-1.06022-9.93174,2.97173,0.20457C49.6951,70.767,48.78364,71.14989,47.47477,72.07887Zm1.79285,1.96468-0.1316-.62015q-1.45286.32607-2.90571,0.6521L46.346,74.642Q47.80681,74.3428,49.26762,74.04355Z"/></g></svg>